<svg width="341" height="223" viewBox="0 0 341 223" fill="none" xmlns="http://www.w3.org/2000/svg">
<rect width="30" height="196" transform="matrix(-1 0 0 1 73.0708 26.3751)" fill="#B8D3DC"/>
<path d="M321.071 39.3751C321.071 30.5385 313.907 23.3751 305.071 23.3751H254.071C245.234 23.3751 238.071 30.5385 238.071 39.3751V45.3751C238.071 54.2116 245.234 61.3751 254.071 61.3751H305.071C313.907 61.3751 321.071 54.2116 321.071 45.3751V39.3751Z" fill="#B8D3DC"/>
<path d="M340.051 12.9765C340.022 5.80608 334.193 0.0129678 327.023 0.0287908L13.0001 0.72174C5.82038 0.737584 0.0129422 6.57071 0.0287855 13.7504L0.12526 57.4696C0.142165 65.1303 6.74619 71.1155 14.3717 70.381L328.355 40.1367C335.041 39.4927 340.135 33.8613 340.108 27.1444L340.051 12.9765Z" fill="#A1BAC2"/>
<path d="M330.571 24.3959V12.3543" stroke="#BDC6C9" stroke-width="8" stroke-linecap="round" stroke-linejoin="round"/>
<path d="M65.0708 212.375V73.3751" stroke="#CFDEE2" stroke-width="8" stroke-linecap="round" stroke-linejoin="round"/>
<path d="M9.0708 58.3751V14.3751" stroke="#B5C2C6" stroke-width="8" stroke-linecap="round" stroke-linejoin="round"/>
</svg>
